<svg xmlns="http://www.w3.org/2000/svg" xmlns:xlink="http://www.w3.org/1999/xlink" width="500" zoomAndPan="magnify" viewBox="0 0 375 374.999991" height="500" preserveAspectRatio="xMidYMid meet" version="1.0"><defs><clipPath id="5a63d94f08"><path d="M 67 242 L 110 242 L 110 322.5 L 67 322.5 Z M 67 242 " clip-rule="nonzero"/></clipPath><clipPath id="c91564b321"><path d="M 133 218 L 177 218 L 177 322.5 L 133 322.5 Z M 133 218 " clip-rule="nonzero"/></clipPath><clipPath id="9276b34ac2"><path d="M 266 52.5 L 310 52.5 L 310 222 L 266 222 Z M 266 52.5 " clip-rule="nonzero"/></clipPath><clipPath id="f8c4868d43"><path d="M 266 237 L 310 237 L 310 322.5 L 266 322.5 Z M 266 237 " clip-rule="nonzero"/></clipPath><clipPath id="1718c797ac"><path d="M 200 285 L 243 285 L 243 322.5 L 200 322.5 Z M 200 285 " clip-rule="nonzero"/></clipPath></defs><path fill="#ffffff" d="M 109.753906 167.261719 L 109.753906 195.761719 L 67.1875 226.175781 L 67.1875 167.261719 L 109.753906 167.261719 " fill-opacity="1" fill-rule="nonzero"/><g clip-path="url(#5a63d94f08)"><path fill="#ffffff" d="M 67.1875 273.375 L 109.753906 242.960938 L 109.753906 322.386719 L 67.1875 322.386719 L 67.1875 273.375 " fill-opacity="1" fill-rule="nonzero"/></g><path fill="#ffffff" d="M 176.199219 127.355469 L 176.199219 196.472656 L 164.570312 180.195312 C 158.414062 171.585938 146.398438 169.582031 137.785156 175.734375 L 133.632812 178.695312 L 133.632812 127.355469 L 176.199219 127.355469 " fill-opacity="1" fill-rule="nonzero"/><g clip-path="url(#c91564b321)"><path fill="#ffffff" d="M 144.492188 218.148438 L 176.199219 262.542969 L 176.199219 322.386719 L 133.632812 322.386719 L 133.632812 225.902344 L 144.492188 218.148438 " fill-opacity="1" fill-rule="nonzero"/></g><g clip-path="url(#9276b34ac2)"><path fill="#ffffff" d="M 309.09375 52.421875 L 309.09375 190.675781 L 266.535156 221.089844 L 266.535156 52.421875 L 309.09375 52.421875 " fill-opacity="1" fill-rule="nonzero"/></g><g clip-path="url(#f8c4868d43)"><path fill="#ffffff" d="M 266.535156 268.296875 L 309.09375 237.882812 L 309.09375 322.386719 L 266.535156 322.386719 L 266.535156 268.296875 " fill-opacity="1" fill-rule="nonzero"/></g><path fill="#ffffff" d="M 242.648438 93.285156 L 242.648438 238.144531 L 218.371094 255.492188 L 200.089844 229.902344 L 200.089844 93.285156 L 242.648438 93.285156 " fill-opacity="1" fill-rule="nonzero"/><g clip-path="url(#1718c797ac)"><path fill="#ffffff" d="M 225.074219 297.914062 L 242.648438 285.351562 L 242.648438 322.386719 L 200.089844 322.386719 L 200.089844 295.613281 C 206.578125 302.359375 217.230469 303.507812 225.074219 297.914062 " fill-opacity="1" fill-rule="nonzero"/></g><path fill="#ffffff" d="M 374.902344 167.253906 L 352.558594 216.394531 L 342.109375 201.773438 L 219.152344 289.625 C 215.101562 292.523438 209.46875 291.585938 206.570312 287.527344 L 146.847656 203.953125 L 15.726562 297.640625 C 13.695312 299.085938 11.273438 299.578125 8.996094 299.203125 C 6.722656 298.816406 4.589844 297.574219 3.136719 295.542969 C 0.242188 291.492188 1.175781 285.851562 5.230469 282.953125 L 143.703125 184.019531 C 147.753906 181.125 153.386719 182.066406 156.289062 186.117188 L 216.003906 269.695312 L 331.617188 187.09375 L 321.167969 172.472656 L 374.902344 167.253906 " fill-opacity="1" fill-rule="nonzero"/></svg>