<svg xmlns="http://www.w3.org/2000/svg" xmlns:xlink="http://www.w3.org/1999/xlink" width="240" zoomAndPan="magnify" viewBox="0 0 180 60" height="80" preserveAspectRatio="xMidYMid meet" version="1.0"><defs><g/></defs><g fill="#ffffff" fill-opacity="1"><g transform="translate(26.288709, 23.297958)"><g><path d="M 7.136719 0.199219 C 10.636719 0.199219 12.507812 -1.566406 12.507812 -4.28125 C 12.507812 -7.640625 9.75 -8.222656 7.238281 -8.765625 C 5.1875 -9.207031 3.316406 -9.609375 3.316406 -11.480469 C 3.316406 -12.949219 4.402344 -13.894531 6.472656 -13.894531 C 8.164062 -13.894531 9.832031 -13.210938 10.273438 -11.117188 L 12.0625 -11.117188 C 11.5625 -14.273438 9.089844 -15.542969 6.496094 -15.542969 C 3.5 -15.542969 1.46875 -13.933594 1.46875 -11.320312 C 1.46875 -8.304688 4.019531 -7.761719 6.414062 -7.257812 C 8.585938 -6.796875 10.65625 -6.355469 10.65625 -4.160156 C 10.65625 -2.332031 9.371094 -1.449219 7.21875 -1.449219 C 5.308594 -1.449219 3.195312 -2.191406 2.714844 -4.644531 L 0.84375 -4.644531 C 1.367188 -1.207031 4.101562 0.199219 7.136719 0.199219 Z M 7.136719 0.199219 "/></g></g></g><g fill="#ffffff" fill-opacity="1"><g transform="translate(39.820215, 23.297958)"><g><path d="M 6.515625 0 L 6.515625 -1.507812 L 5.367188 -1.507812 C 4.121094 -1.507812 4.042969 -2.152344 4.042969 -3.136719 L 4.042969 -9.609375 L 6.535156 -9.609375 L 6.535156 -11.117188 L 4.042969 -11.117188 L 4.042969 -15.339844 L 2.332031 -15.339844 L 2.332031 -11.117188 L 0.542969 -11.117188 L 0.542969 -9.609375 L 2.332031 -9.609375 L 2.332031 -2.792969 C 2.332031 -0.5625 3.296875 0 4.964844 0 Z M 6.515625 0 "/></g></g></g><g fill="#ffffff" fill-opacity="1"><g transform="translate(47.078578, 23.297958)"><g><path d="M 6.375 0.199219 C 9.128906 0.199219 10.816406 -1.488281 11.5 -3.578125 L 9.671875 -3.578125 C 9.1875 -2.351562 8.042969 -1.308594 6.355469 -1.308594 C 4.746094 -1.308594 3.4375 -2.414062 2.875 -4.121094 C 2.753906 -4.464844 2.675781 -4.886719 2.652344 -5.226562 L 11.703125 -5.226562 L 11.703125 -5.832031 C 11.703125 -9.410156 9.128906 -11.320312 6.332031 -11.320312 C 2.894531 -11.320312 0.964844 -8.546875 0.964844 -5.527344 C 0.964844 -2.25 3.175781 0.199219 6.375 0.199219 Z M 2.816406 -6.734375 C 2.875 -7.078125 2.976562 -7.480469 3.136719 -7.820312 C 3.738281 -9.089844 4.886719 -9.8125 6.375 -9.8125 C 7.800781 -9.8125 9.046875 -9.109375 9.628906 -7.820312 C 9.773438 -7.5 9.851562 -7.097656 9.871094 -6.734375 Z M 2.816406 -6.734375 "/></g></g></g><g fill="#ffffff" fill-opacity="1"><g transform="translate(59.725415, 23.297958)"><g><path d="M 6.796875 -11.320312 C 5.269531 -11.320312 4.28125 -10.835938 3.15625 -9.390625 L 3.15625 -11.117188 L 1.449219 -11.117188 L 1.449219 4.222656 L 3.15625 4.222656 L 3.15625 -1.730469 C 4.300781 -0.242188 5.308594 0.199219 6.796875 0.199219 C 9.792969 0.199219 11.742188 -2.152344 11.742188 -5.570312 C 11.742188 -8.96875 9.792969 -11.320312 6.796875 -11.320312 Z M 6.636719 -9.8125 C 8.726562 -9.8125 10.03125 -7.980469 10.03125 -5.570312 C 10.03125 -3.136719 8.726562 -1.308594 6.636719 -1.308594 C 4.5625 -1.308594 3.097656 -3.097656 3.097656 -5.570312 C 3.097656 -8.023438 4.5625 -9.8125 6.636719 -9.8125 Z M 6.636719 -9.8125 "/></g></g></g><g fill="#ffffff" fill-opacity="1"><g transform="translate(72.472777, 23.297958)"><g/></g></g><g fill="#ffffff" fill-opacity="1"><g transform="translate(78.102545, 23.297958)"><g><path d="M 6.796875 0.199219 C 9.792969 0.199219 11.742188 -2.152344 11.742188 -5.550781 C 11.742188 -8.96875 9.792969 -11.320312 6.796875 -11.320312 C 5.308594 -11.320312 4.300781 -10.878906 3.15625 -9.390625 L 3.15625 -15.339844 L 1.449219 -15.339844 L 1.449219 0 L 3.15625 0 L 3.15625 -1.730469 C 4.28125 -0.28125 5.269531 0.199219 6.796875 0.199219 Z M 6.636719 -1.308594 C 4.5625 -1.308594 3.097656 -3.097656 3.097656 -5.550781 C 3.097656 -8.023438 4.5625 -9.8125 6.636719 -9.8125 C 8.726562 -9.8125 10.03125 -7.980469 10.03125 -5.550781 C 10.03125 -3.136719 8.726562 -1.308594 6.636719 -1.308594 Z M 6.636719 -1.308594 "/></g></g></g><g fill="#ffffff" fill-opacity="1"><g transform="translate(90.849907, 23.297958)"><g><path d="M 3.078125 4.222656 C 4.402344 4.222656 5.085938 3.859375 5.691406 2.230469 L 10.617188 -11.117188 L 8.765625 -11.117188 L 5.628906 -2.492188 L 2.25 -11.117188 L 0.363281 -11.117188 L 4.703125 -0.160156 L 4.101562 1.488281 C 3.699219 2.574219 3.378906 2.652344 2.472656 2.652344 L 1.425781 2.652344 L 1.425781 4.222656 Z M 3.078125 4.222656 "/></g></g></g><g fill="#ffffff" fill-opacity="1"><g transform="translate(101.888242, 23.297958)"><g/></g></g><g fill="#ffffff" fill-opacity="1"><g transform="translate(107.51801, 23.297958)"><g><path d="M 7.136719 0.199219 C 10.636719 0.199219 12.507812 -1.566406 12.507812 -4.28125 C 12.507812 -7.640625 9.75 -8.222656 7.238281 -8.765625 C 5.1875 -9.207031 3.316406 -9.609375 3.316406 -11.480469 C 3.316406 -12.949219 4.402344 -13.894531 6.472656 -13.894531 C 8.164062 -13.894531 9.832031 -13.210938 10.273438 -11.117188 L 12.0625 -11.117188 C 11.5625 -14.273438 9.089844 -15.542969 6.496094 -15.542969 C 3.5 -15.542969 1.46875 -13.933594 1.46875 -11.320312 C 1.46875 -8.304688 4.019531 -7.761719 6.414062 -7.257812 C 8.585938 -6.796875 10.65625 -6.355469 10.65625 -4.160156 C 10.65625 -2.332031 9.371094 -1.449219 7.21875 -1.449219 C 5.308594 -1.449219 3.195312 -2.191406 2.714844 -4.644531 L 0.84375 -4.644531 C 1.367188 -1.207031 4.101562 0.199219 7.136719 0.199219 Z M 7.136719 0.199219 "/></g></g></g><g fill="#ffffff" fill-opacity="1"><g transform="translate(121.049515, 23.297958)"><g><path d="M 6.515625 0 L 6.515625 -1.507812 L 5.367188 -1.507812 C 4.121094 -1.507812 4.042969 -2.152344 4.042969 -3.136719 L 4.042969 -9.609375 L 6.535156 -9.609375 L 6.535156 -11.117188 L 4.042969 -11.117188 L 4.042969 -15.339844 L 2.332031 -15.339844 L 2.332031 -11.117188 L 0.542969 -11.117188 L 0.542969 -9.609375 L 2.332031 -9.609375 L 2.332031 -2.792969 C 2.332031 -0.5625 3.296875 0 4.964844 0 Z M 6.515625 0 "/></g></g></g><g fill="#ffffff" fill-opacity="1"><g transform="translate(128.307879, 23.297958)"><g><path d="M 6.375 0.199219 C 9.128906 0.199219 10.816406 -1.488281 11.5 -3.578125 L 9.671875 -3.578125 C 9.1875 -2.351562 8.042969 -1.308594 6.355469 -1.308594 C 4.746094 -1.308594 3.4375 -2.414062 2.875 -4.121094 C 2.753906 -4.464844 2.675781 -4.886719 2.652344 -5.226562 L 11.703125 -5.226562 L 11.703125 -5.832031 C 11.703125 -9.410156 9.128906 -11.320312 6.332031 -11.320312 C 2.894531 -11.320312 0.964844 -8.546875 0.964844 -5.527344 C 0.964844 -2.25 3.175781 0.199219 6.375 0.199219 Z M 2.816406 -6.734375 C 2.875 -7.078125 2.976562 -7.480469 3.136719 -7.820312 C 3.738281 -9.089844 4.886719 -9.8125 6.375 -9.8125 C 7.800781 -9.8125 9.046875 -9.109375 9.628906 -7.820312 C 9.773438 -7.5 9.851562 -7.097656 9.871094 -6.734375 Z M 2.816406 -6.734375 "/></g></g></g><g fill="#ffffff" fill-opacity="1"><g transform="translate(140.954715, 23.297958)"><g><path d="M 6.796875 -11.320312 C 5.269531 -11.320312 4.28125 -10.835938 3.15625 -9.390625 L 3.15625 -11.117188 L 1.449219 -11.117188 L 1.449219 4.222656 L 3.15625 4.222656 L 3.15625 -1.730469 C 4.300781 -0.242188 5.308594 0.199219 6.796875 0.199219 C 9.792969 0.199219 11.742188 -2.152344 11.742188 -5.570312 C 11.742188 -8.96875 9.792969 -11.320312 6.796875 -11.320312 Z M 6.636719 -9.8125 C 8.726562 -9.8125 10.03125 -7.980469 10.03125 -5.570312 C 10.03125 -3.136719 8.726562 -1.308594 6.636719 -1.308594 C 4.5625 -1.308594 3.097656 -3.097656 3.097656 -5.570312 C 3.097656 -8.023438 4.5625 -9.8125 6.636719 -9.8125 Z M 6.636719 -9.8125 "/></g></g></g><g fill="#ffffff" fill-opacity="1"><g transform="translate(48.017985, 50.106125)"><g><path d="M 7.136719 0.199219 C 10.636719 0.199219 12.507812 -1.566406 12.507812 -4.28125 C 12.507812 -7.640625 9.75 -8.222656 7.238281 -8.765625 C 5.1875 -9.207031 3.316406 -9.609375 3.316406 -11.480469 C 3.316406 -12.949219 4.402344 -13.894531 6.472656 -13.894531 C 8.164062 -13.894531 9.832031 -13.210938 10.273438 -11.117188 L 12.0625 -11.117188 C 11.5625 -14.273438 9.089844 -15.542969 6.496094 -15.542969 C 3.5 -15.542969 1.46875 -13.933594 1.46875 -11.320312 C 1.46875 -8.304688 4.019531 -7.761719 6.414062 -7.257812 C 8.585938 -6.796875 10.65625 -6.355469 10.65625 -4.160156 C 10.65625 -2.332031 9.371094 -1.449219 7.21875 -1.449219 C 5.308594 -1.449219 3.195312 -2.191406 2.714844 -4.644531 L 0.84375 -4.644531 C 1.367188 -1.207031 4.101562 0.199219 7.136719 0.199219 Z M 7.136719 0.199219 "/></g></g></g><g fill="#ffffff" fill-opacity="1"><g transform="translate(61.549491, 50.106125)"><g><path d="M 6.515625 0 L 6.515625 -1.507812 L 5.367188 -1.507812 C 4.121094 -1.507812 4.042969 -2.152344 4.042969 -3.136719 L 4.042969 -9.609375 L 6.535156 -9.609375 L 6.535156 -11.117188 L 4.042969 -11.117188 L 4.042969 -15.339844 L 2.332031 -15.339844 L 2.332031 -11.117188 L 0.542969 -11.117188 L 0.542969 -9.609375 L 2.332031 -9.609375 L 2.332031 -2.792969 C 2.332031 -0.5625 3.296875 0 4.964844 0 Z M 6.515625 0 "/></g></g></g><g fill="#ffffff" fill-opacity="1"><g transform="translate(68.807854, 50.106125)"><g><path d="M 3.136719 0 L 3.136719 -5.851562 C 3.136719 -7.238281 3.476562 -8.183594 4.121094 -8.804688 C 4.644531 -9.328125 5.367188 -9.609375 6.273438 -9.609375 L 6.855469 -9.609375 L 6.855469 -11.320312 L 6.777344 -11.320312 C 5.269531 -11.320312 4.160156 -10.835938 3.136719 -9.589844 L 3.136719 -11.117188 L 1.425781 -11.117188 L 1.425781 0 Z M 3.136719 0 "/></g></g></g><g fill="#ffffff" fill-opacity="1"><g transform="translate(76.106433, 50.106125)"><g><path d="M 6.375 0.199219 C 9.128906 0.199219 10.816406 -1.488281 11.5 -3.578125 L 9.671875 -3.578125 C 9.1875 -2.351562 8.042969 -1.308594 6.355469 -1.308594 C 4.746094 -1.308594 3.4375 -2.414062 2.875 -4.121094 C 2.753906 -4.464844 2.675781 -4.886719 2.652344 -5.226562 L 11.703125 -5.226562 L 11.703125 -5.832031 C 11.703125 -9.410156 9.128906 -11.320312 6.332031 -11.320312 C 2.894531 -11.320312 0.964844 -8.546875 0.964844 -5.527344 C 0.964844 -2.25 3.175781 0.199219 6.375 0.199219 Z M 2.816406 -6.734375 C 2.875 -7.078125 2.976562 -7.480469 3.136719 -7.820312 C 3.738281 -9.089844 4.886719 -9.8125 6.375 -9.8125 C 7.800781 -9.8125 9.046875 -9.109375 9.628906 -7.820312 C 9.773438 -7.5 9.851562 -7.097656 9.871094 -6.734375 Z M 2.816406 -6.734375 "/></g></g></g><g fill="#ffffff" fill-opacity="1"><g transform="translate(88.75327, 50.106125)"><g><path d="M 3.136719 0 L 3.136719 -4.746094 C 3.136719 -7.015625 3.417969 -8.222656 4.140625 -8.988281 C 4.605469 -9.488281 5.269531 -9.8125 6.171875 -9.8125 C 6.9375 -9.8125 7.5 -9.609375 7.882812 -9.1875 C 8.324219 -8.6875 8.523438 -7.882812 8.523438 -6.695312 L 8.523438 0 L 10.234375 0 L 10.234375 -6.695312 C 10.234375 -7.398438 10.234375 -8.566406 9.710938 -9.570312 C 9.167969 -10.597656 8.183594 -11.320312 6.433594 -11.320312 C 5.226562 -11.320312 4.261719 -10.835938 3.136719 -9.390625 L 3.136719 -11.117188 L 1.425781 -11.117188 L 1.425781 0 Z M 3.136719 0 "/></g></g></g><g fill="#ffffff" fill-opacity="1"><g transform="translate(100.334478, 50.106125)"><g><path d="M 6.332031 4.421875 C 9.25 4.421875 11.339844 3.238281 11.339844 -0.382812 L 11.339844 -11.117188 L 9.628906 -11.117188 L 9.628906 -9.390625 C 8.503906 -10.835938 7.519531 -11.320312 5.972656 -11.320312 C 2.996094 -11.320312 1.046875 -8.96875 1.046875 -5.507812 C 1.046875 -2.152344 2.996094 0.199219 5.992188 0.199219 C 7.480469 0.199219 8.484375 -0.242188 9.628906 -1.730469 L 9.628906 -0.0585938 C 9.628906 1.789062 8.644531 2.914062 6.3125 2.914062 C 4.484375 2.914062 3.457031 2.230469 3.117188 0.90625 L 1.367188 0.90625 C 1.808594 3.597656 4.082031 4.421875 6.332031 4.421875 Z M 6.152344 -1.308594 C 4.0625 -1.308594 2.753906 -3.136719 2.753906 -5.570312 C 2.753906 -7.980469 4.0625 -9.8125 6.152344 -9.8125 C 8.203125 -9.8125 9.691406 -8.023438 9.691406 -5.570312 C 9.691406 -3.097656 8.222656 -1.308594 6.152344 -1.308594 Z M 6.152344 -1.308594 "/></g></g></g><g fill="#ffffff" fill-opacity="1"><g transform="translate(113.101962, 50.106125)"><g><path d="M 6.515625 0 L 6.515625 -1.507812 L 5.367188 -1.507812 C 4.121094 -1.507812 4.042969 -2.152344 4.042969 -3.136719 L 4.042969 -9.609375 L 6.535156 -9.609375 L 6.535156 -11.117188 L 4.042969 -11.117188 L 4.042969 -15.339844 L 2.332031 -15.339844 L 2.332031 -11.117188 L 0.542969 -11.117188 L 0.542969 -9.609375 L 2.332031 -9.609375 L 2.332031 -2.792969 C 2.332031 -0.5625 3.296875 0 4.964844 0 Z M 6.515625 0 "/></g></g></g><g fill="#ffffff" fill-opacity="1"><g transform="translate(120.360326, 50.106125)"><g><path d="M 3.15625 0 L 3.15625 -4.746094 C 3.15625 -7.015625 3.4375 -8.222656 4.160156 -8.988281 C 4.625 -9.488281 5.289062 -9.8125 6.191406 -9.8125 C 6.957031 -9.8125 7.519531 -9.609375 7.902344 -9.1875 C 8.34375 -8.6875 8.546875 -7.882812 8.546875 -6.695312 L 8.546875 0 L 10.253906 0 L 10.253906 -6.695312 C 10.253906 -7.398438 10.253906 -8.566406 9.730469 -9.570312 C 9.1875 -10.597656 8.203125 -11.320312 6.453125 -11.320312 C 5.246094 -11.320312 4.28125 -10.835938 3.15625 -9.390625 L 3.15625 -15.339844 L 1.449219 -15.339844 L 1.449219 0 Z M 3.15625 0 "/></g></g></g></svg>