<svg xmlns="http://www.w3.org/2000/svg" xmlns:xlink="http://www.w3.org/1999/xlink" width="500" zoomAndPan="magnify" viewBox="0 0 375 374.999991" height="500" preserveAspectRatio="xMidYMid meet" version="1.0"><defs><g/><clipPath id="7366ef17a0"><path d="M 220 83.320312 L 238 83.320312 L 238 154 L 220 154 Z M 220 83.320312 " clip-rule="nonzero"/></clipPath></defs><rect x="-37.5" width="450" fill="#ffffff" y="-37.499999" height="449.999989" fill-opacity="1"/><rect x="-37.5" width="450" fill="#ffffff" y="-37.499999" height="449.999989" fill-opacity="1"/><path fill="#424242" d="M 155.355469 130.769531 L 155.355469 142.550781 L 137.757812 155.125 L 137.757812 130.769531 L 155.355469 130.769531 " fill-opacity="1" fill-rule="nonzero"/><path fill="#424242" d="M 137.757812 174.640625 L 155.355469 162.066406 L 155.355469 194.90625 L 137.757812 194.90625 L 137.757812 174.640625 " fill-opacity="1" fill-rule="nonzero"/><path fill="#424242" d="M 182.828125 114.269531 L 182.828125 142.847656 L 178.019531 136.117188 C 175.472656 132.554688 170.507812 131.726562 166.945312 134.273438 L 165.226562 135.496094 L 165.226562 114.269531 L 182.828125 114.269531 " fill-opacity="1" fill-rule="nonzero"/><path fill="#424242" d="M 169.71875 151.808594 L 182.828125 170.164062 L 182.828125 194.90625 L 165.226562 194.90625 L 165.226562 155.015625 L 169.71875 151.808594 " fill-opacity="1" fill-rule="nonzero"/><g clip-path="url(#7366ef17a0)"><path fill="#424242" d="M 237.773438 83.285156 L 237.773438 140.449219 L 220.175781 153.023438 L 220.175781 83.285156 L 237.773438 83.285156 " fill-opacity="1" fill-rule="nonzero"/></g><path fill="#424242" d="M 220.175781 172.542969 L 237.773438 159.964844 L 237.773438 194.90625 L 220.175781 194.90625 L 220.175781 172.542969 " fill-opacity="1" fill-rule="nonzero"/><path fill="#424242" d="M 210.300781 100.183594 L 210.300781 160.074219 L 200.265625 167.246094 L 192.703125 156.667969 L 192.703125 100.183594 L 210.300781 100.183594 " fill-opacity="1" fill-rule="nonzero"/><path fill="#424242" d="M 203.035156 184.789062 L 210.300781 179.59375 L 210.300781 194.90625 L 192.703125 194.90625 L 192.703125 183.835938 C 195.386719 186.625 199.792969 187.101562 203.035156 184.789062 " fill-opacity="1" fill-rule="nonzero"/><path fill="#424242" d="M 264.980469 130.765625 L 255.746094 151.082031 L 251.425781 145.039062 L 200.585938 181.359375 C 198.910156 182.558594 196.582031 182.171875 195.382812 180.492188 L 170.691406 145.9375 L 116.480469 184.675781 C 115.640625 185.273438 114.636719 185.476562 113.695312 185.320312 C 112.757812 185.160156 111.875 184.648438 111.273438 183.808594 C 110.078125 182.132812 110.460938 179.800781 112.140625 178.601562 L 169.390625 137.695312 C 171.066406 136.5 173.394531 136.890625 174.59375 138.5625 L 199.285156 173.121094 L 247.085938 138.96875 L 242.765625 132.921875 L 264.980469 130.765625 " fill-opacity="1" fill-rule="nonzero"/><g fill="#424242" fill-opacity="1"><g transform="translate(22.619001, 233.121594)"><g><path d="M 10.851562 0.304688 C 16.167969 0.304688 19.011719 -2.382812 19.011719 -6.511719 C 19.011719 -11.613281 14.824219 -12.5 11.003906 -13.328125 C 7.886719 -14 5.042969 -14.609375 5.042969 -17.453125 C 5.042969 -19.683594 6.695312 -21.121094 9.84375 -21.121094 C 12.410156 -21.121094 14.945312 -20.082031 15.617188 -16.902344 L 18.339844 -16.902344 C 17.574219 -21.699219 13.816406 -23.625 9.871094 -23.625 C 5.316406 -23.625 2.230469 -21.179688 2.230469 -17.207031 C 2.230469 -12.625 6.113281 -11.796875 9.75 -11.035156 C 13.050781 -10.332031 16.199219 -9.660156 16.199219 -6.328125 C 16.199219 -3.546875 14.242188 -2.199219 10.972656 -2.199219 C 8.070312 -2.199219 4.859375 -3.332031 4.125 -7.058594 L 1.285156 -7.058594 C 2.078125 -1.832031 6.234375 0.304688 10.851562 0.304688 Z M 10.851562 0.304688 "/></g></g></g><g fill="#424242" fill-opacity="1"><g transform="translate(43.181571, 233.121594)"><g><path d="M 9.902344 0 L 9.902344 -2.292969 L 8.160156 -2.292969 C 6.265625 -2.292969 6.144531 -3.269531 6.144531 -4.769531 L 6.144531 -14.609375 L 9.933594 -14.609375 L 9.933594 -16.902344 L 6.144531 -16.902344 L 6.144531 -23.320312 L 3.546875 -23.320312 L 3.546875 -16.902344 L 0.824219 -16.902344 L 0.824219 -14.609375 L 3.546875 -14.609375 L 3.546875 -4.25 C 3.546875 -0.855469 5.011719 0 7.550781 0 Z M 9.902344 0 "/></g></g></g><g fill="#424242" fill-opacity="1"><g transform="translate(54.211419, 233.121594)"><g><path d="M 9.6875 0.304688 C 13.875 0.304688 16.445312 -2.261719 17.484375 -5.441406 L 14.703125 -5.441406 C 13.96875 -3.574219 12.226562 -1.988281 9.660156 -1.988281 C 7.214844 -1.988281 5.226562 -3.667969 4.371094 -6.265625 C 4.1875 -6.785156 4.066406 -7.425781 4.035156 -7.945312 L 17.789062 -7.945312 L 17.789062 -8.863281 C 17.789062 -14.304688 13.875 -17.207031 9.628906 -17.207031 C 4.402344 -17.207031 1.46875 -12.988281 1.46875 -8.40625 C 1.46875 -3.421875 4.828125 0.304688 9.6875 0.304688 Z M 4.277344 -10.238281 C 4.371094 -10.757812 4.523438 -11.371094 4.769531 -11.890625 C 5.683594 -13.816406 7.425781 -14.914062 9.6875 -14.914062 C 11.859375 -14.914062 13.753906 -13.847656 14.640625 -11.890625 C 14.855469 -11.402344 14.976562 -10.789062 15.007812 -10.238281 Z M 4.277344 -10.238281 "/></g></g></g><g fill="#424242" fill-opacity="1"><g transform="translate(73.429626, 233.121594)"><g><path d="M 10.332031 -17.207031 C 8.007812 -17.207031 6.511719 -16.472656 4.796875 -14.273438 L 4.796875 -16.902344 L 2.199219 -16.902344 L 2.199219 6.417969 L 4.796875 6.417969 L 4.796875 -2.628906 C 6.539062 -0.367188 8.070312 0.304688 10.332031 0.304688 C 14.886719 0.304688 17.851562 -3.269531 17.851562 -8.464844 C 17.851562 -13.632812 14.886719 -17.207031 10.332031 -17.207031 Z M 10.085938 -14.914062 C 13.265625 -14.914062 15.25 -12.132812 15.25 -8.464844 C 15.25 -4.769531 13.265625 -1.988281 10.085938 -1.988281 C 6.9375 -1.988281 4.707031 -4.707031 4.707031 -8.464844 C 4.707031 -12.195312 6.9375 -14.914062 10.085938 -14.914062 Z M 10.085938 -14.914062 "/></g></g></g><g fill="#424242" fill-opacity="1"><g transform="translate(92.800596, 233.121594)"><g/></g></g><g fill="#424242" fill-opacity="1"><g transform="translate(101.355595, 233.121594)"><g><path d="M 10.332031 0.304688 C 14.886719 0.304688 17.851562 -3.269531 17.851562 -8.4375 C 17.851562 -13.632812 14.886719 -17.207031 10.332031 -17.207031 C 8.070312 -17.207031 6.539062 -16.535156 4.796875 -14.273438 L 4.796875 -23.320312 L 2.199219 -23.320312 L 2.199219 0 L 4.796875 0 L 4.796875 -2.628906 C 6.511719 -0.429688 8.007812 0.304688 10.332031 0.304688 Z M 10.085938 -1.988281 C 6.9375 -1.988281 4.707031 -4.707031 4.707031 -8.4375 C 4.707031 -12.195312 6.9375 -14.914062 10.085938 -14.914062 C 13.265625 -14.914062 15.25 -12.132812 15.25 -8.4375 C 15.25 -4.769531 13.265625 -1.988281 10.085938 -1.988281 Z M 10.085938 -1.988281 "/></g></g></g><g fill="#424242" fill-opacity="1"><g transform="translate(120.726565, 233.121594)"><g><path d="M 4.675781 6.417969 C 6.695312 6.417969 7.734375 5.867188 8.648438 3.394531 L 16.136719 -16.902344 L 13.328125 -16.902344 L 8.558594 -3.789062 L 3.421875 -16.902344 L 0.550781 -16.902344 L 7.152344 -0.246094 L 6.234375 2.261719 C 5.625 3.914062 5.136719 4.035156 3.757812 4.035156 L 2.171875 4.035156 L 2.171875 6.417969 Z M 4.675781 6.417969 "/></g></g></g><g fill="#424242" fill-opacity="1"><g transform="translate(137.500489, 233.121594)"><g/></g></g><g fill="#424242" fill-opacity="1"><g transform="translate(146.055489, 233.121594)"><g><path d="M 10.851562 0.304688 C 16.167969 0.304688 19.011719 -2.382812 19.011719 -6.511719 C 19.011719 -11.613281 14.824219 -12.5 11.003906 -13.328125 C 7.886719 -14 5.042969 -14.609375 5.042969 -17.453125 C 5.042969 -19.683594 6.695312 -21.121094 9.84375 -21.121094 C 12.410156 -21.121094 14.945312 -20.082031 15.617188 -16.902344 L 18.339844 -16.902344 C 17.574219 -21.699219 13.816406 -23.625 9.871094 -23.625 C 5.316406 -23.625 2.230469 -21.179688 2.230469 -17.207031 C 2.230469 -12.625 6.113281 -11.796875 9.75 -11.035156 C 13.050781 -10.332031 16.199219 -9.660156 16.199219 -6.328125 C 16.199219 -3.546875 14.242188 -2.199219 10.972656 -2.199219 C 8.070312 -2.199219 4.859375 -3.332031 4.125 -7.058594 L 1.285156 -7.058594 C 2.078125 -1.832031 6.234375 0.304688 10.851562 0.304688 Z M 10.851562 0.304688 "/></g></g></g><g fill="#424242" fill-opacity="1"><g transform="translate(166.618058, 233.121594)"><g><path d="M 9.902344 0 L 9.902344 -2.292969 L 8.160156 -2.292969 C 6.265625 -2.292969 6.144531 -3.269531 6.144531 -4.769531 L 6.144531 -14.609375 L 9.933594 -14.609375 L 9.933594 -16.902344 L 6.144531 -16.902344 L 6.144531 -23.320312 L 3.546875 -23.320312 L 3.546875 -16.902344 L 0.824219 -16.902344 L 0.824219 -14.609375 L 3.546875 -14.609375 L 3.546875 -4.25 C 3.546875 -0.855469 5.011719 0 7.550781 0 Z M 9.902344 0 "/></g></g></g><g fill="#424242" fill-opacity="1"><g transform="translate(177.647906, 233.121594)"><g><path d="M 9.6875 0.304688 C 13.875 0.304688 16.445312 -2.261719 17.484375 -5.441406 L 14.703125 -5.441406 C 13.96875 -3.574219 12.226562 -1.988281 9.660156 -1.988281 C 7.214844 -1.988281 5.226562 -3.667969 4.371094 -6.265625 C 4.1875 -6.785156 4.066406 -7.425781 4.035156 -7.945312 L 17.789062 -7.945312 L 17.789062 -8.863281 C 17.789062 -14.304688 13.875 -17.207031 9.628906 -17.207031 C 4.402344 -17.207031 1.46875 -12.988281 1.46875 -8.40625 C 1.46875 -3.421875 4.828125 0.304688 9.6875 0.304688 Z M 4.277344 -10.238281 C 4.371094 -10.757812 4.523438 -11.371094 4.769531 -11.890625 C 5.683594 -13.816406 7.425781 -14.914062 9.6875 -14.914062 C 11.859375 -14.914062 13.753906 -13.847656 14.640625 -11.890625 C 14.855469 -11.402344 14.976562 -10.789062 15.007812 -10.238281 Z M 4.277344 -10.238281 "/></g></g></g><g fill="#424242" fill-opacity="1"><g transform="translate(196.866113, 233.121594)"><g><path d="M 10.332031 -17.207031 C 8.007812 -17.207031 6.511719 -16.472656 4.796875 -14.273438 L 4.796875 -16.902344 L 2.199219 -16.902344 L 2.199219 6.417969 L 4.796875 6.417969 L 4.796875 -2.628906 C 6.539062 -0.367188 8.070312 0.304688 10.332031 0.304688 C 14.886719 0.304688 17.851562 -3.269531 17.851562 -8.464844 C 17.851562 -13.632812 14.886719 -17.207031 10.332031 -17.207031 Z M 10.085938 -14.914062 C 13.265625 -14.914062 15.25 -12.132812 15.25 -8.464844 C 15.25 -4.769531 13.265625 -1.988281 10.085938 -1.988281 C 6.9375 -1.988281 4.707031 -4.707031 4.707031 -8.464844 C 4.707031 -12.195312 6.9375 -14.914062 10.085938 -14.914062 Z M 10.085938 -14.914062 "/></g></g></g><g fill="#424242" fill-opacity="1"><g transform="translate(216.237083, 233.121594)"><g/></g></g><g fill="#424242" fill-opacity="1"><g transform="translate(224.792083, 233.121594)"><g><path d="M 10.851562 0.304688 C 16.167969 0.304688 19.011719 -2.382812 19.011719 -6.511719 C 19.011719 -11.613281 14.824219 -12.5 11.003906 -13.328125 C 7.886719 -14 5.042969 -14.609375 5.042969 -17.453125 C 5.042969 -19.683594 6.695312 -21.121094 9.84375 -21.121094 C 12.410156 -21.121094 14.945312 -20.082031 15.617188 -16.902344 L 18.339844 -16.902344 C 17.574219 -21.699219 13.816406 -23.625 9.871094 -23.625 C 5.316406 -23.625 2.230469 -21.179688 2.230469 -17.207031 C 2.230469 -12.625 6.113281 -11.796875 9.75 -11.035156 C 13.050781 -10.332031 16.199219 -9.660156 16.199219 -6.328125 C 16.199219 -3.546875 14.242188 -2.199219 10.972656 -2.199219 C 8.070312 -2.199219 4.859375 -3.332031 4.125 -7.058594 L 1.285156 -7.058594 C 2.078125 -1.832031 6.234375 0.304688 10.851562 0.304688 Z M 10.851562 0.304688 "/></g></g></g><g fill="#424242" fill-opacity="1"><g transform="translate(245.354652, 233.121594)"><g><path d="M 9.902344 0 L 9.902344 -2.292969 L 8.160156 -2.292969 C 6.265625 -2.292969 6.144531 -3.269531 6.144531 -4.769531 L 6.144531 -14.609375 L 9.933594 -14.609375 L 9.933594 -16.902344 L 6.144531 -16.902344 L 6.144531 -23.320312 L 3.546875 -23.320312 L 3.546875 -16.902344 L 0.824219 -16.902344 L 0.824219 -14.609375 L 3.546875 -14.609375 L 3.546875 -4.25 C 3.546875 -0.855469 5.011719 0 7.550781 0 Z M 9.902344 0 "/></g></g></g><g fill="#424242" fill-opacity="1"><g transform="translate(256.3845, 233.121594)"><g><path d="M 4.769531 0 L 4.769531 -8.894531 C 4.769531 -11.003906 5.289062 -12.441406 6.265625 -13.386719 C 7.058594 -14.183594 8.160156 -14.609375 9.535156 -14.609375 L 10.421875 -14.609375 L 10.421875 -17.207031 L 10.300781 -17.207031 C 8.007812 -17.207031 6.328125 -16.472656 4.769531 -14.578125 L 4.769531 -16.902344 L 2.171875 -16.902344 L 2.171875 0 Z M 4.769531 0 "/></g></g></g><g fill="#424242" fill-opacity="1"><g transform="translate(267.475462, 233.121594)"><g><path d="M 9.6875 0.304688 C 13.875 0.304688 16.445312 -2.261719 17.484375 -5.441406 L 14.703125 -5.441406 C 13.96875 -3.574219 12.226562 -1.988281 9.660156 -1.988281 C 7.214844 -1.988281 5.226562 -3.667969 4.371094 -6.265625 C 4.1875 -6.785156 4.066406 -7.425781 4.035156 -7.945312 L 17.789062 -7.945312 L 17.789062 -8.863281 C 17.789062 -14.304688 13.875 -17.207031 9.628906 -17.207031 C 4.402344 -17.207031 1.46875 -12.988281 1.46875 -8.40625 C 1.46875 -3.421875 4.828125 0.304688 9.6875 0.304688 Z M 4.277344 -10.238281 C 4.371094 -10.757812 4.523438 -11.371094 4.769531 -11.890625 C 5.683594 -13.816406 7.425781 -14.914062 9.6875 -14.914062 C 11.859375 -14.914062 13.753906 -13.847656 14.640625 -11.890625 C 14.855469 -11.402344 14.976562 -10.789062 15.007812 -10.238281 Z M 4.277344 -10.238281 "/></g></g></g><g fill="#424242" fill-opacity="1"><g transform="translate(286.693654, 233.121594)"><g><path d="M 4.769531 0 L 4.769531 -7.214844 C 4.769531 -10.667969 5.195312 -12.5 6.296875 -13.664062 C 7 -14.425781 8.007812 -14.914062 9.382812 -14.914062 C 10.546875 -14.914062 11.402344 -14.609375 11.980469 -13.96875 C 12.652344 -13.203125 12.960938 -11.980469 12.960938 -10.179688 L 12.960938 0 L 15.558594 0 L 15.558594 -10.179688 C 15.558594 -11.246094 15.558594 -13.019531 14.761719 -14.550781 C 13.9375 -16.109375 12.441406 -17.207031 9.78125 -17.207031 C 7.945312 -17.207031 6.480469 -16.472656 4.769531 -14.273438 L 4.769531 -16.902344 L 2.171875 -16.902344 L 2.171875 0 Z M 4.769531 0 "/></g></g></g><g fill="#424242" fill-opacity="1"><g transform="translate(304.292508, 233.121594)"><g><path d="M 9.628906 6.722656 C 14.058594 6.722656 17.238281 4.921875 17.238281 -0.582031 L 17.238281 -16.902344 L 14.640625 -16.902344 L 14.640625 -14.273438 C 12.929688 -16.472656 11.429688 -17.207031 9.078125 -17.207031 C 4.554688 -17.207031 1.589844 -13.632812 1.589844 -8.375 C 1.589844 -3.269531 4.554688 0.304688 9.109375 0.304688 C 11.371094 0.304688 12.898438 -0.367188 14.640625 -2.628906 L 14.640625 -0.0898438 C 14.640625 2.71875 13.144531 4.433594 9.597656 4.433594 C 6.816406 4.433594 5.257812 3.394531 4.738281 1.375 L 2.078125 1.375 C 2.75 5.472656 6.203125 6.722656 9.628906 6.722656 Z M 9.351562 -1.988281 C 6.175781 -1.988281 4.1875 -4.769531 4.1875 -8.464844 C 4.1875 -12.132812 6.175781 -14.914062 9.351562 -14.914062 C 12.46875 -14.914062 14.730469 -12.195312 14.730469 -8.464844 C 14.730469 -4.707031 12.5 -1.988281 9.351562 -1.988281 Z M 9.351562 -1.988281 "/></g></g></g><g fill="#424242" fill-opacity="1"><g transform="translate(323.694058, 233.121594)"><g><path d="M 9.902344 0 L 9.902344 -2.292969 L 8.160156 -2.292969 C 6.265625 -2.292969 6.144531 -3.269531 6.144531 -4.769531 L 6.144531 -14.609375 L 9.933594 -14.609375 L 9.933594 -16.902344 L 6.144531 -16.902344 L 6.144531 -23.320312 L 3.546875 -23.320312 L 3.546875 -16.902344 L 0.824219 -16.902344 L 0.824219 -14.609375 L 3.546875 -14.609375 L 3.546875 -4.25 C 3.546875 -0.855469 5.011719 0 7.550781 0 Z M 9.902344 0 "/></g></g></g><g fill="#424242" fill-opacity="1"><g transform="translate(334.723905, 233.121594)"><g><path d="M 4.796875 0 L 4.796875 -7.214844 C 4.796875 -10.667969 5.226562 -12.5 6.328125 -13.664062 C 7.03125 -14.425781 8.039062 -14.914062 9.414062 -14.914062 C 10.574219 -14.914062 11.429688 -14.609375 12.011719 -13.96875 C 12.683594 -13.203125 12.988281 -11.980469 12.988281 -10.179688 L 12.988281 0 L 15.589844 0 L 15.589844 -10.179688 C 15.589844 -11.246094 15.589844 -13.019531 14.792969 -14.550781 C 13.96875 -16.109375 12.46875 -17.207031 9.8125 -17.207031 C 7.976562 -17.207031 6.511719 -16.472656 4.796875 -14.273438 L 4.796875 -23.320312 L 2.199219 -23.320312 L 2.199219 0 Z M 4.796875 0 "/></g></g></g><g fill="#424242" fill-opacity="1"><g transform="translate(78.203231, 254.261316)"><g><path d="M 5.867188 0 L 5.867188 -4.4375 L 10.167969 -11.597656 L 8.574219 -11.597656 L 5.109375 -5.820312 L 1.6875 -11.597656 L 0.0625 -11.597656 L 4.410156 -4.4375 L 4.410156 0 Z M 5.867188 0 "/></g></g></g><g fill="#424242" fill-opacity="1"><g transform="translate(88.444614, 254.261316)"><g><path d="M 4.835938 0.152344 C 7.265625 0.152344 8.96875 -1.703125 8.96875 -4.242188 C 8.96875 -6.734375 7.234375 -8.558594 4.835938 -8.558594 C 2.433594 -8.558594 0.730469 -6.734375 0.730469 -4.242188 C 0.730469 -1.671875 2.433594 0.152344 4.835938 0.152344 Z M 4.835938 -0.988281 C 3.238281 -0.988281 2.023438 -2.339844 2.023438 -4.242188 C 2.023438 -6.066406 3.222656 -7.417969 4.835938 -7.417969 C 6.460938 -7.417969 7.660156 -6.035156 7.660156 -4.242188 C 7.660156 -2.371094 6.445312 -0.988281 4.835938 -0.988281 Z M 4.835938 -0.988281 "/></g></g></g><g fill="#424242" fill-opacity="1"><g transform="translate(98.154182, 254.261316)"><g><path d="M 3.921875 0.152344 C 4.878906 0.152344 5.609375 -0.273438 6.414062 -1.308594 L 6.414062 0 L 7.707031 0 L 7.707031 -8.40625 L 6.414062 -8.40625 L 6.414062 -4.820312 C 6.414062 -3.101562 6.203125 -2.1875 5.65625 -1.613281 C 5.273438 -1.199219 4.757812 -0.988281 4.121094 -0.988281 C 3.542969 -0.988281 3.117188 -1.140625 2.828125 -1.460938 C 2.492188 -1.839844 2.339844 -2.433594 2.339844 -3.34375 L 2.339844 -8.40625 L 1.050781 -8.40625 L 1.050781 -3.34375 C 1.050781 -2.371094 1.171875 -1.6875 1.445312 -1.171875 C 1.914062 -0.289062 2.734375 0.152344 3.921875 0.152344 Z M 3.921875 0.152344 "/></g></g></g><g fill="#424242" fill-opacity="1"><g transform="translate(106.936851, 254.261316)"><g><path d="M 2.371094 0 L 2.371094 -4.421875 C 2.371094 -5.472656 2.628906 -6.1875 3.117188 -6.660156 C 3.511719 -7.054688 4.058594 -7.265625 4.742188 -7.265625 L 5.183594 -7.265625 L 5.183594 -8.558594 L 5.121094 -8.558594 C 3.984375 -8.558594 3.148438 -8.195312 2.371094 -7.25 L 2.371094 -8.40625 L 1.078125 -8.40625 L 1.078125 0 Z M 2.371094 0 "/></g></g></g><g fill="#424242" fill-opacity="1"><g transform="translate(112.452618, 254.261316)"><g/></g></g><g fill="#424242" fill-opacity="1"><g transform="translate(116.707198, 254.261316)"><g><path d="M 1.734375 -9.851562 C 2.28125 -9.851562 2.722656 -10.277344 2.722656 -10.808594 C 2.722656 -11.324219 2.28125 -11.75 1.734375 -11.75 C 1.1875 -11.75 0.746094 -11.324219 0.746094 -10.808594 C 0.746094 -10.277344 1.1875 -9.851562 1.734375 -9.851562 Z M 0.210938 3.191406 C 1.640625 3.191406 2.386719 2.417969 2.386719 0.898438 L 2.386719 -8.40625 L 1.09375 -8.40625 L 1.09375 0.730469 C 1.09375 1.761719 0.609375 2.007812 -0.0898438 2.007812 L -0.882812 2.007812 L -0.882812 3.191406 Z M 0.210938 3.191406 "/></g></g></g><g fill="#424242" fill-opacity="1"><g transform="translate(120.171642, 254.261316)"><g><path d="M 4.835938 0.152344 C 7.265625 0.152344 8.96875 -1.703125 8.96875 -4.242188 C 8.96875 -6.734375 7.234375 -8.558594 4.835938 -8.558594 C 2.433594 -8.558594 0.730469 -6.734375 0.730469 -4.242188 C 0.730469 -1.671875 2.433594 0.152344 4.835938 0.152344 Z M 4.835938 -0.988281 C 3.238281 -0.988281 2.023438 -2.339844 2.023438 -4.242188 C 2.023438 -6.066406 3.222656 -7.417969 4.835938 -7.417969 C 6.460938 -7.417969 7.660156 -6.035156 7.660156 -4.242188 C 7.660156 -2.371094 6.445312 -0.988281 4.835938 -0.988281 Z M 4.835938 -0.988281 "/></g></g></g><g fill="#424242" fill-opacity="1"><g transform="translate(129.88121, 254.261316)"><g><path d="M 3.921875 0.152344 C 4.878906 0.152344 5.609375 -0.273438 6.414062 -1.308594 L 6.414062 0 L 7.707031 0 L 7.707031 -8.40625 L 6.414062 -8.40625 L 6.414062 -4.820312 C 6.414062 -3.101562 6.203125 -2.1875 5.65625 -1.613281 C 5.273438 -1.199219 4.757812 -0.988281 4.121094 -0.988281 C 3.542969 -0.988281 3.117188 -1.140625 2.828125 -1.460938 C 2.492188 -1.839844 2.339844 -2.433594 2.339844 -3.34375 L 2.339844 -8.40625 L 1.050781 -8.40625 L 1.050781 -3.34375 C 1.050781 -2.371094 1.171875 -1.6875 1.445312 -1.171875 C 1.914062 -0.289062 2.734375 0.152344 3.921875 0.152344 Z M 3.921875 0.152344 "/></g></g></g><g fill="#424242" fill-opacity="1"><g transform="translate(138.663879, 254.261316)"><g><path d="M 2.371094 0 L 2.371094 -4.421875 C 2.371094 -5.472656 2.628906 -6.1875 3.117188 -6.660156 C 3.511719 -7.054688 4.058594 -7.265625 4.742188 -7.265625 L 5.183594 -7.265625 L 5.183594 -8.558594 L 5.121094 -8.558594 C 3.984375 -8.558594 3.148438 -8.195312 2.371094 -7.25 L 2.371094 -8.40625 L 1.078125 -8.40625 L 1.078125 0 Z M 2.371094 0 "/></g></g></g><g fill="#424242" fill-opacity="1"><g transform="translate(144.179646, 254.261316)"><g><path d="M 2.371094 0 L 2.371094 -3.585938 C 2.371094 -5.304688 2.585938 -6.21875 3.132812 -6.796875 C 3.480469 -7.175781 3.984375 -7.417969 4.667969 -7.417969 C 5.246094 -7.417969 5.671875 -7.265625 5.960938 -6.945312 C 6.292969 -6.566406 6.445312 -5.960938 6.445312 -5.0625 L 6.445312 0 L 7.738281 0 L 7.738281 -5.0625 C 7.738281 -5.59375 7.738281 -6.476562 7.34375 -7.234375 C 6.933594 -8.011719 6.1875 -8.558594 4.863281 -8.558594 C 3.953125 -8.558594 3.222656 -8.195312 2.371094 -7.097656 L 2.371094 -8.40625 L 1.078125 -8.40625 L 1.078125 0 Z M 2.371094 0 "/></g></g></g><g fill="#424242" fill-opacity="1"><g transform="translate(152.931925, 254.261316)"><g><path d="M 4.820312 0.152344 C 6.902344 0.152344 8.179688 -1.125 8.695312 -2.707031 L 7.3125 -2.707031 C 6.945312 -1.777344 6.082031 -0.988281 4.804688 -0.988281 C 3.585938 -0.988281 2.597656 -1.824219 2.171875 -3.117188 C 2.082031 -3.375 2.023438 -3.695312 2.007812 -3.953125 L 8.847656 -3.953125 L 8.847656 -4.410156 C 8.847656 -7.113281 6.902344 -8.558594 4.789062 -8.558594 C 2.1875 -8.558594 0.730469 -6.460938 0.730469 -4.179688 C 0.730469 -1.703125 2.402344 0.152344 4.820312 0.152344 Z M 2.128906 -5.09375 C 2.171875 -5.351562 2.25 -5.65625 2.371094 -5.914062 C 2.828125 -6.871094 3.695312 -7.417969 4.820312 -7.417969 C 5.898438 -7.417969 6.839844 -6.886719 7.28125 -5.914062 C 7.386719 -5.671875 7.449219 -5.367188 7.464844 -5.09375 Z M 2.128906 -5.09375 "/></g></g></g><g fill="#424242" fill-opacity="1"><g transform="translate(162.489544, 254.261316)"><g><path d="M 2.324219 3.191406 C 3.328125 3.191406 3.847656 2.917969 4.300781 1.6875 L 8.027344 -8.40625 L 6.628906 -8.40625 L 4.257812 -1.886719 L 1.703125 -8.40625 L 0.273438 -8.40625 L 3.558594 -0.121094 L 3.101562 1.125 C 2.796875 1.945312 2.554688 2.007812 1.871094 2.007812 L 1.078125 2.007812 L 1.078125 3.191406 Z M 2.324219 3.191406 "/></g></g></g><g fill="#424242" fill-opacity="1"><g transform="translate(170.831567, 254.261316)"><g/></g></g><g fill="#424242" fill-opacity="1"><g transform="translate(175.086148, 254.261316)"><g><path d="M 4.925781 0 L 4.925781 -1.140625 L 4.058594 -1.140625 C 3.117188 -1.140625 3.054688 -1.625 3.054688 -2.371094 L 3.054688 -7.265625 L 4.941406 -7.265625 L 4.941406 -8.40625 L 3.054688 -8.40625 L 3.054688 -11.597656 L 1.761719 -11.597656 L 1.761719 -8.40625 L 0.410156 -8.40625 L 0.410156 -7.265625 L 1.761719 -7.265625 L 1.761719 -2.113281 C 1.761719 -0.425781 2.492188 0 3.753906 0 Z M 4.925781 0 "/></g></g></g><g fill="#424242" fill-opacity="1"><g transform="translate(180.571524, 254.261316)"><g><path d="M 4.835938 0.152344 C 7.265625 0.152344 8.96875 -1.703125 8.96875 -4.242188 C 8.96875 -6.734375 7.234375 -8.558594 4.835938 -8.558594 C 2.433594 -8.558594 0.730469 -6.734375 0.730469 -4.242188 C 0.730469 -1.671875 2.433594 0.152344 4.835938 0.152344 Z M 4.835938 -0.988281 C 3.238281 -0.988281 2.023438 -2.339844 2.023438 -4.242188 C 2.023438 -6.066406 3.222656 -7.417969 4.835938 -7.417969 C 6.460938 -7.417969 7.660156 -6.035156 7.660156 -4.242188 C 7.660156 -2.371094 6.445312 -0.988281 4.835938 -0.988281 Z M 4.835938 -0.988281 "/></g></g></g><g fill="#424242" fill-opacity="1"><g transform="translate(190.281092, 254.261316)"><g/></g></g><g fill="#424242" fill-opacity="1"><g transform="translate(194.535672, 254.261316)"><g><path d="M 5.136719 -8.558594 C 3.984375 -8.558594 3.238281 -8.195312 2.386719 -7.097656 L 2.386719 -8.40625 L 1.09375 -8.40625 L 1.09375 3.191406 L 2.386719 3.191406 L 2.386719 -1.308594 C 3.253906 -0.183594 4.011719 0.152344 5.136719 0.152344 C 7.402344 0.152344 8.878906 -1.625 8.878906 -4.210938 C 8.878906 -6.78125 7.402344 -8.558594 5.136719 -8.558594 Z M 5.015625 -7.417969 C 6.597656 -7.417969 7.585938 -6.035156 7.585938 -4.210938 C 7.585938 -2.371094 6.597656 -0.988281 5.015625 -0.988281 C 3.449219 -0.988281 2.339844 -2.339844 2.339844 -4.210938 C 2.339844 -6.066406 3.449219 -7.417969 5.015625 -7.417969 Z M 5.015625 -7.417969 "/></g></g></g><g fill="#424242" fill-opacity="1"><g transform="translate(204.169258, 254.261316)"><g><path d="M 4.820312 0.152344 C 6.902344 0.152344 8.179688 -1.125 8.695312 -2.707031 L 7.3125 -2.707031 C 6.945312 -1.777344 6.082031 -0.988281 4.804688 -0.988281 C 3.585938 -0.988281 2.597656 -1.824219 2.171875 -3.117188 C 2.082031 -3.375 2.023438 -3.695312 2.007812 -3.953125 L 8.847656 -3.953125 L 8.847656 -4.410156 C 8.847656 -7.113281 6.902344 -8.558594 4.789062 -8.558594 C 2.1875 -8.558594 0.730469 -6.460938 0.730469 -4.179688 C 0.730469 -1.703125 2.402344 0.152344 4.820312 0.152344 Z M 2.128906 -5.09375 C 2.171875 -5.351562 2.25 -5.65625 2.371094 -5.914062 C 2.828125 -6.871094 3.695312 -7.417969 4.820312 -7.417969 C 5.898438 -7.417969 6.839844 -6.886719 7.28125 -5.914062 C 7.386719 -5.671875 7.449219 -5.367188 7.464844 -5.09375 Z M 2.128906 -5.09375 "/></g></g></g><g fill="#424242" fill-opacity="1"><g transform="translate(213.726876, 254.261316)"><g><path d="M 3.464844 0.152344 C 4.242188 0.152344 4.894531 0.015625 5.457031 -0.335938 C 5.835938 -0.5625 6.171875 -0.882812 6.476562 -1.324219 L 6.476562 0 L 7.769531 0 L 7.769531 -4.957031 C 7.769531 -5.519531 7.769531 -6.839844 6.886719 -7.691406 C 6.292969 -8.269531 5.398438 -8.558594 4.421875 -8.558594 C 2.8125 -8.558594 1.335938 -7.632812 1.050781 -5.882812 L 2.339844 -5.882812 C 2.539062 -6.824219 3.375 -7.417969 4.410156 -7.417969 C 5.0625 -7.417969 5.59375 -7.207031 5.960938 -6.839844 C 6.308594 -6.492188 6.476562 -5.988281 6.476562 -5.335938 L 3.480469 -4.757812 C 2.644531 -4.589844 2.007812 -4.332031 1.550781 -3.96875 C 1.003906 -3.542969 0.730469 -2.949219 0.730469 -2.234375 C 0.730469 -0.761719 1.777344 0.152344 3.464844 0.152344 Z M 3.617188 -0.988281 C 2.644531 -0.988281 2.023438 -1.488281 2.023438 -2.265625 C 2.023438 -2.628906 2.144531 -2.917969 2.371094 -3.148438 C 2.660156 -3.421875 3.117188 -3.617188 3.753906 -3.738281 L 6.492188 -4.285156 C 6.492188 -2.886719 6.15625 -1.898438 4.957031 -1.277344 C 4.574219 -1.078125 4.136719 -0.988281 3.617188 -0.988281 Z M 3.617188 -0.988281 "/></g></g></g><g fill="#424242" fill-opacity="1"><g transform="translate(222.479156, 254.261316)"><g><path d="M 2.386719 0 L 2.386719 -4.394531 L 6.492188 0 L 8.253906 0 L 3.753906 -4.710938 L 7.875 -8.40625 L 6.082031 -8.40625 L 2.386719 -5.046875 L 2.386719 -11.597656 L 1.09375 -11.597656 L 1.09375 0 Z M 2.386719 0 "/></g></g></g><g fill="#424242" fill-opacity="1"><g transform="translate(230.897147, 254.261316)"><g/></g></g><g fill="#424242" fill-opacity="1"><g transform="translate(235.151727, 254.261316)"><g><path d="M 4.46875 0.152344 C 6.535156 0.152344 7.707031 -0.867188 7.707031 -2.417969 C 7.707031 -4.300781 6.003906 -4.636719 4.5 -4.925781 C 3.34375 -5.152344 2.296875 -5.351562 2.296875 -6.246094 C 2.296875 -6.976562 2.949219 -7.417969 4.058594 -7.417969 C 5.167969 -7.417969 6.003906 -6.945312 6.261719 -5.882812 L 7.464844 -5.882812 C 7.175781 -7.554688 5.882812 -8.558594 4.058594 -8.558594 C 2.339844 -8.558594 1.003906 -7.722656 1.003906 -6.140625 C 1.003906 -4.421875 2.585938 -4.105469 4.042969 -3.816406 C 5.273438 -3.574219 6.414062 -3.328125 6.414062 -2.28125 C 6.414062 -1.429688 5.625 -0.988281 4.484375 -0.988281 C 2.980469 -0.988281 2.21875 -1.6875 2.007812 -2.707031 L 0.652344 -2.707031 C 0.941406 -0.941406 2.324219 0.152344 4.46875 0.152344 Z M 4.46875 0.152344 "/></g></g></g><g fill="#424242" fill-opacity="1"><g transform="translate(243.61531, 254.261316)"><g><path d="M 4.925781 0 L 4.925781 -1.140625 L 4.058594 -1.140625 C 3.117188 -1.140625 3.054688 -1.625 3.054688 -2.371094 L 3.054688 -7.265625 L 4.941406 -7.265625 L 4.941406 -8.40625 L 3.054688 -8.40625 L 3.054688 -11.597656 L 1.761719 -11.597656 L 1.761719 -8.40625 L 0.410156 -8.40625 L 0.410156 -7.265625 L 1.761719 -7.265625 L 1.761719 -2.113281 C 1.761719 -0.425781 2.492188 0 3.753906 0 Z M 4.925781 0 "/></g></g></g><g fill="#424242" fill-opacity="1"><g transform="translate(249.100687, 254.261316)"><g><path d="M 2.371094 0 L 2.371094 -4.421875 C 2.371094 -5.472656 2.628906 -6.1875 3.117188 -6.660156 C 3.511719 -7.054688 4.058594 -7.265625 4.742188 -7.265625 L 5.183594 -7.265625 L 5.183594 -8.558594 L 5.121094 -8.558594 C 3.984375 -8.558594 3.148438 -8.195312 2.371094 -7.25 L 2.371094 -8.40625 L 1.078125 -8.40625 L 1.078125 0 Z M 2.371094 0 "/></g></g></g><g fill="#424242" fill-opacity="1"><g transform="translate(254.616454, 254.261316)"><g><path d="M 4.820312 0.152344 C 6.902344 0.152344 8.179688 -1.125 8.695312 -2.707031 L 7.3125 -2.707031 C 6.945312 -1.777344 6.082031 -0.988281 4.804688 -0.988281 C 3.585938 -0.988281 2.597656 -1.824219 2.171875 -3.117188 C 2.082031 -3.375 2.023438 -3.695312 2.007812 -3.953125 L 8.847656 -3.953125 L 8.847656 -4.410156 C 8.847656 -7.113281 6.902344 -8.558594 4.789062 -8.558594 C 2.1875 -8.558594 0.730469 -6.460938 0.730469 -4.179688 C 0.730469 -1.703125 2.402344 0.152344 4.820312 0.152344 Z M 2.128906 -5.09375 C 2.171875 -5.351562 2.25 -5.65625 2.371094 -5.914062 C 2.828125 -6.871094 3.695312 -7.417969 4.820312 -7.417969 C 5.898438 -7.417969 6.839844 -6.886719 7.28125 -5.914062 C 7.386719 -5.671875 7.449219 -5.367188 7.464844 -5.09375 Z M 2.128906 -5.09375 "/></g></g></g><g fill="#424242" fill-opacity="1"><g transform="translate(264.174072, 254.261316)"><g><path d="M 2.371094 0 L 2.371094 -3.585938 C 2.371094 -5.304688 2.585938 -6.21875 3.132812 -6.796875 C 3.480469 -7.175781 3.984375 -7.417969 4.667969 -7.417969 C 5.246094 -7.417969 5.671875 -7.265625 5.960938 -6.945312 C 6.292969 -6.566406 6.445312 -5.960938 6.445312 -5.0625 L 6.445312 0 L 7.738281 0 L 7.738281 -5.0625 C 7.738281 -5.59375 7.738281 -6.476562 7.34375 -7.234375 C 6.933594 -8.011719 6.1875 -8.558594 4.863281 -8.558594 C 3.953125 -8.558594 3.222656 -8.195312 2.371094 -7.097656 L 2.371094 -8.40625 L 1.078125 -8.40625 L 1.078125 0 Z M 2.371094 0 "/></g></g></g><g fill="#424242" fill-opacity="1"><g transform="translate(272.926352, 254.261316)"><g><path d="M 4.789062 3.34375 C 6.992188 3.34375 8.574219 2.449219 8.574219 -0.289062 L 8.574219 -8.40625 L 7.28125 -8.40625 L 7.28125 -7.097656 C 6.429688 -8.195312 5.683594 -8.558594 4.515625 -8.558594 C 2.265625 -8.558594 0.789062 -6.78125 0.789062 -4.164062 C 0.789062 -1.625 2.265625 0.152344 4.53125 0.152344 C 5.65625 0.152344 6.414062 -0.183594 7.28125 -1.308594 L 7.28125 -0.046875 C 7.28125 1.351562 6.535156 2.203125 4.773438 2.203125 C 3.390625 2.203125 2.613281 1.6875 2.355469 0.683594 L 1.035156 0.683594 C 1.367188 2.722656 3.085938 3.34375 4.789062 3.34375 Z M 4.652344 -0.988281 C 3.070312 -0.988281 2.082031 -2.371094 2.082031 -4.210938 C 2.082031 -6.035156 3.070312 -7.417969 4.652344 -7.417969 C 6.203125 -7.417969 7.328125 -6.066406 7.328125 -4.210938 C 7.328125 -2.339844 6.21875 -0.988281 4.652344 -0.988281 Z M 4.652344 -0.988281 "/></g></g></g><g fill="#424242" fill-opacity="1"><g transform="translate(282.575139, 254.261316)"><g><path d="M 4.925781 0 L 4.925781 -1.140625 L 4.058594 -1.140625 C 3.117188 -1.140625 3.054688 -1.625 3.054688 -2.371094 L 3.054688 -7.265625 L 4.941406 -7.265625 L 4.941406 -8.40625 L 3.054688 -8.40625 L 3.054688 -11.597656 L 1.761719 -11.597656 L 1.761719 -8.40625 L 0.410156 -8.40625 L 0.410156 -7.265625 L 1.761719 -7.265625 L 1.761719 -2.113281 C 1.761719 -0.425781 2.492188 0 3.753906 0 Z M 4.925781 0 "/></g></g></g><g fill="#424242" fill-opacity="1"><g transform="translate(288.060516, 254.261316)"><g><path d="M 2.386719 0 L 2.386719 -3.585938 C 2.386719 -5.304688 2.597656 -6.21875 3.148438 -6.796875 C 3.496094 -7.175781 3.996094 -7.417969 4.683594 -7.417969 C 5.257812 -7.417969 5.683594 -7.265625 5.972656 -6.945312 C 6.308594 -6.566406 6.460938 -5.960938 6.460938 -5.0625 L 6.460938 0 L 7.753906 0 L 7.753906 -5.0625 C 7.753906 -5.59375 7.753906 -6.476562 7.359375 -7.234375 C 6.945312 -8.011719 6.203125 -8.558594 4.878906 -8.558594 C 3.96875 -8.558594 3.238281 -8.195312 2.386719 -7.097656 L 2.386719 -11.597656 L 1.09375 -11.597656 L 1.09375 0 Z M 2.386719 0 "/></g></g></g></svg>